<svg xmlns="http://www.w3.org/2000/svg" version="1.1" xmlns:xlink="http://www.w3.org/1999/xlink" xmlns:svgjs="http://svgjs.dev/svgjs" width="1000" height="1000" viewBox="0 0 1000 1000"><rect width="1000" height="1000" fill="#ffffff"></rect><g transform="matrix(0.7,0,0,0.7,149.57575757575756,282.1265587044535)"><svg viewBox="0 0 396 247" data-background-color="#ffffff" preserveAspectRatio="xMidYMid meet" height="623" width="1000" xmlns="http://www.w3.org/2000/svg" xmlns:xlink="http://www.w3.org/1999/xlink"><g id="tight-bounds" transform="matrix(1,0,0,1,0.2400000000000091,-0.09999999999999432)"><svg viewBox="0 0 395.52 247.2" height="247.2" width="395.52"><rect width="395.5199890136719" height="247.1999969482422" fill="url(#8238ec14-73cd-43ad-961d-a6ab2d89ba38)" mask="url(&quot;#7b512687-9ad8-47a1-a81e-aed207d1b487&quot;)" data-fill-palette-color="accent"></rect><g><svg></svg></g><g><svg viewBox="0 0 395.52 247.2" height="247.2" width="395.52"><g transform="matrix(1,0,0,1,39.55199999999999,92.60828268551236)"><svg viewBox="0 0 316.416 61.98343462897526" height="61.98343462897526" width="316.416"><g><svg viewBox="0 0 316.416 61.98343462897526" height="61.98343462897526" width="316.416"><g><svg viewBox="0 0 316.416 61.98343462897526" height="61.98343462897526" width="316.416"><g><svg viewBox="0 0 316.416 61.98343462897526" height="61.98343462897526" width="316.416"><g id="textblocktransform"><svg viewBox="0 0 316.416 61.98343462897526" height="61.98343462897526" width="316.416" id="textblock"><g><svg viewBox="0 0 316.416 61.98343462897526" height="61.98343462897526" width="316.416"><g transform="matrix(1,0,0,1,0,0)"><svg width="316.416" viewBox="-2.5 -40.54999923706055 227.38999938964844 45.349998474121094" height="61.98343462897526" data-palette-color="#111111"><path d="M18.05-35.85Q21.75-35.85 24.4-32.8L24.4-32.8 21.35-30.3Q19.95-31.8 18.53-32.68 17.1-33.55 15.3-33.55L15.3-33.55Q13.65-33.55 12.1-32.85 10.55-32.15 9.58-30.88 8.6-29.6 8.6-28L8.6-28Q8.6-26.4 9.6-25.05 10.6-23.7 12.18-22.93 13.75-22.15 15.45-22.15L15.45-22.15Q16.1-22.15 16.73-22.2 17.35-22.25 17.75-22.5L17.75-22.5 18.2-21.1Q13.85-19.8 10.4-16.98 6.95-14.15 6.95-10.15L6.95-10.15Q6.95-7.15 8.7-5.23 10.45-3.3 13.5-3.3L13.5-3.3Q16-3.3 18.43-4.28 20.85-5.25 22.7-6.8 24.55-8.35 25.55-10L25.55-10 26.7-9Q24.25-4.9 20.15-2.18 16.05 0.55 11.3 0.55L11.3 0.55Q8.5 0.55 6.28-0.58 4.05-1.7 2.78-3.73 1.5-5.75 1.5-8.4L1.5-8.4Q1.5-12 4.25-14.93 7-17.85 10.95-19.6L10.95-19.6Q8.45-20.2 6.95-21.98 5.45-23.75 5.45-26.1L5.45-26.1Q5.45-29.25 7.43-31.45 9.4-33.65 12.33-34.75 15.25-35.85 18.05-35.85L18.05-35.85ZM46.7-36.5Q49.4-36.5 51.07-35.2 52.75-33.9 52.75-31.65L52.75-31.65Q52.75-29.65 51.17-27.65 49.6-25.65 47.07-24.25 44.55-22.85 41.85-22.5L41.85-22.5 41.4-23.45Q44.1-24.3 45.9-26.25 47.7-28.2 47.7-30.35L47.7-30.35Q47.7-31.95 46.67-32.83 45.65-33.7 43.95-33.7L43.95-33.7Q39.85-33.7 37.85-30.88 35.85-28.05 35.85-24.15L35.85-24.15 35.85-8.65Q35.85-7.1 35.37-5.98 34.9-4.85 33.9-3.65L33.9-3.65 34.15-3.5Q35.35-4.4 36.45-4.85 37.55-5.3 39-5.3L39-5.3Q41-5.3 43.2-4.95L43.2-4.95Q43.5-4.9 44.75-4.75 46-4.6 47.45-4.6L47.45-4.6Q49.15-4.6 50.65-5.5 52.15-6.4 53.2-7.8L53.2-7.8 54.1-7.2 50.4 0.55Q48.05 0.3 45-0.4L45-0.4Q41.95-1 40.02-1.28 38.1-1.55 35.85-1.55L35.85-1.55Q34.4-1.55 32.75-1.05 31.1-0.55 29.85 0.4L29.85 0.4 28.7-0.55Q31.2-2.5 31.2-5.95L31.2-5.95 31.2-20.05Q31.2-24.65 33.15-28.4 35.1-32.15 38.62-34.33 42.15-36.5 46.7-36.5L46.7-36.5ZM81.25-35.6L81.25-34.15Q75.7-33.4 71.25-30.33 66.8-27.25 64.27-22.58 61.75-17.9 61.75-12.45L61.75-12.45Q61.75-7.9 63.5-5.25 65.25-2.6 68.09-2.6L68.09-2.6Q70.9-2.6 73.47-6.48 76.05-10.35 77.62-16.63 79.2-22.9 79.2-29.7L79.2-29.7 83.9-31.55 83.9-5.35Q83.9-3.95 84.5-3.1 85.09-2.25 86.15-2.25L86.15-2.25Q86.95-2.25 87.8-2.78 88.65-3.3 89.09-4.05L89.09-4.05 89.8-3.4Q89.09-1.85 87.65-0.8 86.2 0.25 84.34 0.25L84.34 0.25Q82.05 0.25 80.62-1.35 79.2-2.95 79.2-5.9L79.2-5.9 79.2-15.45 78.95-15.45Q75.34 0.55 66.75 0.55L66.75 0.55Q62.3 0.55 59.59-2.58 56.9-5.7 56.9-11.15L56.9-11.15Q56.9-17.4 60.2-22.9 63.5-28.4 69.09-31.85 74.7-35.3 81.25-35.6L81.25-35.6ZM94.09-34.8L98.69-36.55 98.69-26.85Q99.79-31.05 102.37-33.77 104.94-36.5 109.19-36.5L109.19-36.5Q112.19-36.5 113.74-34.45 115.29-32.4 115.29-29.35L115.29-29.35 115.29-5.35Q115.29-3.95 115.87-3.1 116.44-2.25 117.49-2.25L117.49-2.25Q118.34-2.25 119.19-2.78 120.04-3.3 120.49-4.05L120.49-4.05 121.19-3.4Q120.54-1.9 119.09-0.83 117.64 0.25 115.74 0.25L115.74 0.25Q113.44 0.25 112.04-1.33 110.64-2.9 110.64-5.9L110.64-5.9 110.64-27.35Q110.64-30.15 110.02-32 109.39-33.85 107.14-33.85L107.14-33.85Q104.29-33.85 102.39-31.03 100.49-28.2 99.59-24.4 98.69-20.6 98.69-17.85L98.69-17.85 98.69-1.2 94.09 0.65 94.09-34.8ZM140.09-35.65Q146.09-35.65 149.24-32.27 152.39-28.9 152.39-23.15L152.39-23.15Q152.39-16.8 148.42-11.48 144.44-6.15 138.17-2.95 131.89 0.25 125.34 0.65L125.34 0.65 125.34-27.05 129.99-28.75 129.99-2.05Q134.94-3.35 138.79-6.28 142.64-9.2 144.82-13.35 146.99-17.5 146.99-22.3L146.99-22.3Q146.99-25.05 146.04-27.4 145.09-29.75 143.07-31.25 141.04-32.75 137.94-32.75L137.94-32.75Q133.99-32.75 130.12-31.2 126.24-29.65 123.14-27.05L123.14-27.05 122.14-28.1Q125.34-31.25 130.54-33.45 135.74-35.65 140.09-35.65L140.09-35.65ZM173.49-35.75Q178.24-35.75 181.26-33.18 184.29-30.6 184.29-25.45L184.29-25.45Q184.29-22.1 182.46-19.13 180.64-16.15 177.64-13.98 174.64-11.8 171.14-10.85L171.14-10.85 176.59-4.2Q178.04-2.85 179.49-2.85L179.49-2.85Q180.69-2.85 181.94-3.75 183.19-4.65 184.49-5.95L184.49-5.95 185.24-5.3Q185.04-5.05 183.71-3.28 182.39-1.5 180.66-0.35 178.94 0.8 177.29 0.8L177.29 0.8Q175.89 0.8 174.61-0.08 173.34-0.95 171.84-2.85L171.84-2.85 165.84-10.2 166.14-11.55Q169.49-11.9 172.56-13.63 175.64-15.35 177.54-18.2 179.44-21.05 179.44-24.5L179.44-24.5Q179.44-28.25 177.16-30.5 174.89-32.75 170.44-32.75L170.44-32.75Q166.99-32.75 163.16-31.13 159.34-29.5 156.49-26.9L156.49-26.9 155.54-27.95Q159.19-31.35 164.06-33.55 168.94-35.75 173.49-35.75L173.49-35.75ZM163.19-28.5L163.19-1.1 158.59 0.75 158.59-26.75 163.19-28.5ZM212.34-35.6L212.34-34.15Q206.79-33.4 202.34-30.33 197.89-27.25 195.36-22.58 192.84-17.9 192.84-12.45L192.84-12.45Q192.84-7.9 194.59-5.25 196.34-2.6 199.19-2.6L199.19-2.6Q201.99-2.6 204.56-6.48 207.14-10.35 208.71-16.63 210.29-22.9 210.29-29.7L210.29-29.7 214.99-31.55 214.99-5.35Q214.99-3.95 215.59-3.1 216.19-2.25 217.24-2.25L217.24-2.25Q218.04-2.25 218.89-2.78 219.74-3.3 220.19-4.05L220.19-4.05 220.89-3.4Q220.19-1.85 218.74-0.8 217.29 0.25 215.44 0.25L215.44 0.25Q213.14 0.25 211.71-1.35 210.29-2.95 210.29-5.9L210.29-5.9 210.29-15.45 210.04-15.45Q206.44 0.55 197.84 0.55L197.84 0.55Q193.39 0.55 190.69-2.58 187.99-5.7 187.99-11.15L187.99-11.15Q187.99-17.4 191.29-22.9 194.59-28.4 200.19-31.85 205.79-35.3 212.34-35.6L212.34-35.6Z" opacity="1" transform="matrix(1,0,0,1,0,0)" fill="#111111" class="undefined-text-0" data-fill-palette-color="primary" id="text-0"></path></svg></g></svg></g></svg></g></svg></g></svg></g></svg></g></svg></g><g mask="url(&quot;#7d3d8d4c-1a6a-4484-a1b3-4ee084bc876e&quot;)"><g transform="matrix(0.004242681902269457, 0, 0, 0.004242681902269457, 94.00872755095074, 0.9999999999999858)"><svg xmlns="http://www.w3.org/2000/svg" xmlns:xlink="http://www.w3.org/1999/xlink" xml:space="preserve" version="1.1" style="shape-rendering:geometricPrecision;text-rendering:geometricPrecision;image-rendering:optimizeQuality;" viewBox="5545.8251953125 1103.166259765625 48908.34375 57793.6328125" x="0" y="0" fill-rule="evenodd" clip-rule="evenodd" height="57793.6328125" width="48908.34375" class="icon-none" data-fill-palette-color="accent" id="none"></svg></g></g><mask id="7d3d8d4c-1a6a-4484-a1b3-4ee084bc876e"><rect width="640" height="400" fill="white"></rect><g transform="matrix(1,0,0,1,39.55199999999999,92.60828268551236)"><svg viewBox="0 0 316.416 61.98343462897526" height="61.98343462897526" width="316.416"><g><svg viewBox="0 0 316.416 61.98343462897526" height="61.98343462897526" width="316.416"><g><svg viewBox="0 0 316.416 61.98343462897526" height="61.98343462897526" width="316.416"><g><svg viewBox="0 0 316.416 61.98343462897526" height="61.98343462897526" width="316.416"><g id="SvgjsG1967"><svg viewBox="0 0 316.416 61.98343462897526" height="61.98343462897526" width="316.416" id="SvgjsSvg1966"><g><svg viewBox="0 0 316.416 61.98343462897526" height="61.98343462897526" width="316.416"><g transform="matrix(1,0,0,1,0,0)"><svg width="316.416" viewBox="-2.5 -40.54999923706055 227.38999938964844 45.349998474121094" height="61.98343462897526" data-palette-color="#111111"><path d="M18.05-35.85Q21.75-35.85 24.4-32.8L24.4-32.8 21.35-30.3Q19.95-31.8 18.53-32.68 17.1-33.55 15.3-33.55L15.3-33.55Q13.65-33.55 12.1-32.85 10.55-32.15 9.58-30.88 8.6-29.6 8.6-28L8.6-28Q8.6-26.4 9.6-25.05 10.6-23.7 12.18-22.93 13.75-22.15 15.45-22.15L15.45-22.15Q16.1-22.15 16.73-22.2 17.35-22.25 17.75-22.5L17.75-22.5 18.2-21.1Q13.85-19.8 10.4-16.98 6.95-14.15 6.95-10.15L6.95-10.15Q6.95-7.15 8.7-5.23 10.45-3.3 13.5-3.3L13.5-3.3Q16-3.3 18.43-4.28 20.85-5.25 22.7-6.8 24.55-8.35 25.55-10L25.55-10 26.7-9Q24.25-4.9 20.15-2.18 16.05 0.55 11.3 0.55L11.3 0.55Q8.5 0.55 6.28-0.58 4.05-1.7 2.78-3.73 1.5-5.75 1.5-8.4L1.5-8.4Q1.5-12 4.25-14.93 7-17.85 10.95-19.6L10.95-19.6Q8.45-20.2 6.95-21.98 5.45-23.75 5.45-26.1L5.45-26.1Q5.45-29.25 7.43-31.45 9.4-33.65 12.33-34.75 15.25-35.85 18.05-35.85L18.05-35.85ZM46.7-36.5Q49.4-36.5 51.07-35.2 52.75-33.9 52.75-31.65L52.75-31.65Q52.75-29.65 51.17-27.65 49.6-25.65 47.07-24.25 44.55-22.85 41.85-22.5L41.85-22.5 41.4-23.45Q44.1-24.3 45.9-26.25 47.7-28.2 47.7-30.35L47.7-30.35Q47.7-31.95 46.67-32.83 45.65-33.7 43.95-33.7L43.95-33.7Q39.85-33.7 37.85-30.88 35.85-28.05 35.85-24.15L35.85-24.15 35.85-8.65Q35.85-7.1 35.37-5.98 34.9-4.85 33.9-3.65L33.9-3.65 34.15-3.5Q35.35-4.4 36.45-4.85 37.55-5.3 39-5.3L39-5.3Q41-5.3 43.2-4.95L43.2-4.95Q43.5-4.9 44.75-4.75 46-4.6 47.45-4.6L47.45-4.6Q49.15-4.6 50.65-5.5 52.15-6.4 53.2-7.8L53.2-7.8 54.1-7.2 50.4 0.55Q48.05 0.3 45-0.4L45-0.4Q41.95-1 40.02-1.28 38.1-1.55 35.85-1.55L35.85-1.55Q34.4-1.55 32.75-1.05 31.1-0.55 29.85 0.4L29.85 0.4 28.7-0.55Q31.2-2.5 31.2-5.95L31.2-5.95 31.2-20.05Q31.2-24.65 33.15-28.4 35.1-32.15 38.62-34.33 42.15-36.5 46.7-36.5L46.7-36.5ZM81.25-35.6L81.25-34.15Q75.7-33.4 71.25-30.33 66.8-27.25 64.27-22.58 61.75-17.9 61.75-12.45L61.75-12.45Q61.75-7.9 63.5-5.25 65.25-2.6 68.09-2.6L68.09-2.6Q70.9-2.6 73.47-6.48 76.05-10.35 77.62-16.63 79.2-22.9 79.2-29.7L79.2-29.7 83.9-31.55 83.9-5.35Q83.9-3.95 84.5-3.1 85.09-2.25 86.15-2.25L86.15-2.25Q86.95-2.25 87.8-2.78 88.65-3.3 89.09-4.05L89.09-4.05 89.8-3.4Q89.09-1.85 87.65-0.8 86.2 0.25 84.34 0.25L84.34 0.25Q82.05 0.25 80.62-1.35 79.2-2.95 79.2-5.9L79.2-5.9 79.2-15.45 78.95-15.45Q75.34 0.55 66.75 0.55L66.75 0.55Q62.3 0.55 59.59-2.58 56.9-5.7 56.9-11.15L56.9-11.15Q56.9-17.4 60.2-22.9 63.5-28.4 69.09-31.85 74.7-35.3 81.25-35.6L81.25-35.6ZM94.09-34.8L98.69-36.55 98.69-26.85Q99.79-31.05 102.37-33.77 104.94-36.5 109.19-36.5L109.19-36.5Q112.19-36.5 113.74-34.45 115.29-32.4 115.29-29.35L115.29-29.35 115.29-5.35Q115.29-3.95 115.87-3.1 116.44-2.25 117.49-2.25L117.49-2.25Q118.34-2.25 119.19-2.78 120.04-3.3 120.49-4.05L120.49-4.05 121.19-3.4Q120.54-1.9 119.09-0.83 117.64 0.25 115.74 0.25L115.74 0.25Q113.44 0.25 112.04-1.33 110.64-2.9 110.64-5.9L110.64-5.9 110.64-27.35Q110.64-30.15 110.02-32 109.39-33.85 107.14-33.85L107.14-33.85Q104.29-33.85 102.39-31.03 100.49-28.2 99.59-24.4 98.69-20.6 98.69-17.85L98.69-17.85 98.69-1.2 94.09 0.65 94.09-34.8ZM140.09-35.65Q146.09-35.65 149.24-32.27 152.39-28.9 152.39-23.15L152.39-23.15Q152.39-16.8 148.42-11.48 144.44-6.15 138.17-2.95 131.89 0.25 125.34 0.65L125.34 0.65 125.34-27.05 129.99-28.75 129.99-2.05Q134.94-3.35 138.79-6.28 142.64-9.2 144.82-13.35 146.99-17.5 146.99-22.3L146.99-22.3Q146.99-25.05 146.04-27.4 145.09-29.75 143.07-31.25 141.04-32.75 137.94-32.75L137.94-32.75Q133.99-32.75 130.12-31.2 126.24-29.65 123.14-27.05L123.14-27.05 122.14-28.1Q125.34-31.25 130.54-33.45 135.74-35.65 140.09-35.65L140.09-35.65ZM173.49-35.75Q178.24-35.75 181.26-33.18 184.29-30.6 184.29-25.45L184.29-25.45Q184.29-22.1 182.46-19.13 180.64-16.15 177.64-13.98 174.64-11.8 171.14-10.85L171.14-10.85 176.59-4.2Q178.04-2.85 179.49-2.85L179.49-2.85Q180.69-2.85 181.94-3.75 183.19-4.65 184.49-5.95L184.49-5.95 185.24-5.3Q185.04-5.05 183.71-3.28 182.39-1.5 180.66-0.35 178.94 0.8 177.29 0.8L177.29 0.8Q175.89 0.8 174.61-0.08 173.34-0.95 171.84-2.85L171.84-2.85 165.84-10.2 166.14-11.55Q169.49-11.9 172.56-13.63 175.64-15.35 177.54-18.2 179.44-21.05 179.44-24.5L179.44-24.5Q179.44-28.25 177.16-30.5 174.89-32.75 170.44-32.75L170.44-32.75Q166.99-32.75 163.16-31.13 159.34-29.5 156.49-26.9L156.49-26.9 155.54-27.95Q159.19-31.35 164.06-33.55 168.94-35.75 173.49-35.75L173.49-35.75ZM163.19-28.5L163.19-1.1 158.59 0.75 158.59-26.75 163.19-28.5ZM212.34-35.6L212.34-34.15Q206.79-33.4 202.34-30.33 197.89-27.25 195.36-22.58 192.84-17.9 192.84-12.45L192.84-12.45Q192.84-7.9 194.59-5.25 196.34-2.6 199.19-2.6L199.19-2.6Q201.99-2.6 204.56-6.48 207.14-10.35 208.71-16.63 210.29-22.9 210.29-29.7L210.29-29.7 214.99-31.55 214.99-5.35Q214.99-3.95 215.59-3.1 216.19-2.25 217.24-2.25L217.24-2.25Q218.04-2.25 218.89-2.78 219.74-3.3 220.19-4.05L220.19-4.05 220.89-3.4Q220.19-1.85 218.74-0.8 217.29 0.25 215.44 0.25L215.44 0.25Q213.14 0.25 211.71-1.35 210.29-2.95 210.29-5.9L210.29-5.9 210.29-15.45 210.04-15.45Q206.44 0.55 197.84 0.55L197.84 0.55Q193.39 0.55 190.69-2.58 187.99-5.7 187.99-11.15L187.99-11.15Q187.99-17.4 191.29-22.9 194.59-28.4 200.19-31.85 205.79-35.3 212.34-35.6L212.34-35.6Z" opacity="1" transform="matrix(1,0,0,1,0,0)" fill="#111111" class="undefined-text-0" data-fill-palette-color="primary" id="SvgjsPath1965" stroke-width="7" stroke="black" stroke-linejoin="round"></path></svg></g></svg></g></svg></g></svg></g></svg></g></svg></g></svg></g></mask></svg></g><defs><linearGradient x1="0" x2="1" y1="0.5" y2="0.5" id="8238ec14-73cd-43ad-961d-a6ab2d89ba38"><stop stop-color="#f00b51" offset="0"></stop><stop stop-color="#730062" offset="1"></stop></linearGradient></defs><mask id="7b512687-9ad8-47a1-a81e-aed207d1b487"><g id="SvgjsG1976"><svg viewBox="0 0 395.52 247.2" height="247.2" width="395.52"><g><svg></svg></g><g><svg viewBox="0 0 395.52 247.2" height="247.2" width="395.52"><g transform="matrix(1,0,0,1,39.55199999999999,92.60828268551236)"><svg viewBox="0 0 316.416 61.98343462897526" height="61.98343462897526" width="316.416"><g><svg viewBox="0 0 316.416 61.98343462897526" height="61.98343462897526" width="316.416"><g><svg viewBox="0 0 316.416 61.98343462897526" height="61.98343462897526" width="316.416"><g><svg viewBox="0 0 316.416 61.98343462897526" height="61.98343462897526" width="316.416"><g id="SvgjsG1975"><svg viewBox="0 0 316.416 61.98343462897526" height="61.98343462897526" width="316.416" id="SvgjsSvg1974"><g><svg viewBox="0 0 316.416 61.98343462897526" height="61.98343462897526" width="316.416"><g transform="matrix(1,0,0,1,0,0)"><svg width="316.416" viewBox="-2.5 -40.54999923706055 227.38999938964844 45.349998474121094" height="61.98343462897526" data-palette-color="#111111"></svg></g></svg></g></svg></g></svg></g></svg></g></svg></g></svg></g><g mask="url(&quot;#7d3d8d4c-1a6a-4484-a1b3-4ee084bc876e&quot;)"><g transform="matrix(0.004242681902269457, 0, 0, 0.004242681902269457, 94.00872755095074, 0.9999999999999858)"><svg xmlns="http://www.w3.org/2000/svg" xmlns:xlink="http://www.w3.org/1999/xlink" xml:space="preserve" version="1.1" style="shape-rendering:geometricPrecision;text-rendering:geometricPrecision;image-rendering:optimizeQuality;" viewBox="5545.8251953125 1103.166259765625 48908.34375 57793.6328125" x="0" y="0" fill-rule="evenodd" clip-rule="evenodd" height="57793.6328125" width="48908.34375" class="icon-none" data-fill-palette-color="accent" id="SvgjsSvg1972"><g fill="white"><path class="" d="M31833.99 17397.12c-1308.86 2535.16-2007.64 4190.06-2200.75 5884.42-167.04 1465.64 39.58 2997.86 552.27 5191.1 161.09-714.16 439.3-1390.37 861.58-2013.66 1689.44-2493.63 1368.49-4621.49 1047.55-6749.32-115.13-763.31-230.23-1526.66-260.65-2312.54z m12203.43 25533.04c-164.02 205.26-331.52 407.45-501.62 607.68l609.12 518.64c175.26-206.35 347.87-414.67 516.88-626.18l-624.38-500.14z m6249.17-14409.31c-67.26 257.31-135.1 514.45-203.75 771.39l772.84 206.7c69.03-258.32 137.23-516.86 204.85-775.55l-773.94-202.54z m-845.79 3073.91c-74.55 254.61-150.41 508.79-227.59 762.62l765.28 233.1c78.02-256.46 154.65-513.3 229.97-770.56l-767.66-225.16z m-967.14 3027.53c-87.12 249.14-177.71 497.64-269.93 744.94l749.32 280.2c94.03-252.06 186.35-505.37 275.15-759.32l-754.54-265.82z m-1170.95 2939.19c-108.49 239.46-220.29 477.38-335.22 713.81l718.6 351.58c119.03-242.28 233.53-488.49 344.94-734.39l-728.32-331z m-1462.95 2789.66c-136.35 224.61-275.72 446.71-418.99 666.97l670.18 436.88c147.71-227.18 291.5-456.15 432.11-687.79l-683.3-416.06z m-16116.32 16555.03c-171.72 138.07-422.87 110.78-560.94-60.94-138.07-171.72-110.78-422.87 60.94-560.94 4513.56-3623.92 7719.17-6691.22 10125.77-9881.53l-53.04-74.73c-43.09-60.71-86.11-121.32-128.99-181.85-1171.91-1477.57-2564.51-2735.29-4039.51-3802.52-230.42 688.3-482.88 1366.5-760.12 2039.23-1854.27 4499.48-4801.7 8734.73-9572.01 14137.82-145.83 164.82-397.68 180.21-562.5 34.38-164.82-145.83-180.21-397.68-34.38-562.5 4709.31-5333.99 7614.09-9503.06 9431.39-13912.82 300.09-728.18 570.61-1463.63 815.04-2212.58-4686.06-3160.78-9972.31-4499.77-11618.98-4916.71l-28.63-7.25c-255.42-64.68-509.41-121.57-761.38-169.61-66.29 15.41-137.41 14.07-207.15-7.37l-209.17-64.1c-604.16-91.86-1194.56-128.53-1762.83-95.22-911.27 53.42-1769.06 288.16-2538.84 767.09-2823.63 1756.77-5089.06 1324.36-7354.49 891.95-1293.4-246.87-2586.83-493.75-3960.42-290.95-218.32 31.92-421.2-119.18-453.12-337.5-26.95-184.32 76.55-357.63 240.82-426.35 3676.42-1777.88 5750.94-2684.78 7927.8-2847.42 2128.75-159.06 4287.87 399.53 8072.55 1556.67 396.68 62.05 797.28 145.83 1199.99 247.81l28.63 7.25c596.77 151.1 1660.96 420.7 3000.19 850.57-1451.27-989.65-2590.99-1897.62-3240.36-2414.99-73.98-58.94-141.58-112.8-202.46-161.05-315.82-250.33-621.47-510.41-914.04-781.05-3065.12-2227.37-4765.05-3561.99-6105.5-5330.91-1366.53-1803.32-2325.75-4018.69-3951.5-8062.64-81.98-204.51 17.36-436.77 221.87-518.75 184.63-74.01 391.87-0.22 490.74 165.31 829.91 1216.91 1810.91 2076.78 2791.91 2936.57 1700.85 1490.7 3401.72 2981.42 4452.26 6290.81 298.42 940.08 773.56 1788.3 1371.77 2558.73 369.56 475.95 785.79 922.32 1236.28 1342.39l175.67 127.52c52.76 38.23 93.4 86.95 121.16 141.24 196.74 173.1 399.13 341.61 606.26 505.78 60.88 48.25 128.48 102.11 202.46 161.05 1192.34 949.97 4064.78 3238.52 7449.82 4877.51 5.42 2.62 10.75 5.36 16 8.19 1155.99 542.67 2349.27 1179.01 3519.64 1922.5l-26-25.95c-441.55-440.81-882.84-881.38-1321.99-1324.63-7.66-7.15-15.07-14.62-22.2-22.42-714.3-721.25-1422.82-1449.74-2117.36-2198.14-2921.57-3148.1-4939.77-5880.8-6436.02-8885.67-1491.37-2995.06-2459.3-6249.76-3281.92-10445.53-204.13-432.96-680.24-670.04-1189.54-923.58-436.08-217.09-892.49-444.31-1298.19-823.33-81.3-75.96-150.94-156.05-207.5-240.71-3277.07 760.47-4423.66-590.45-5537.31-1902.79-240.37-283.25-479.07-564.54-732.29-808.44-20.23-19.48-45.2-43.84-70.72-68.73-258.85-252.46-590.98-576.31-1062.33-572.4-459.74 11.55-923.74 21.49-1382.86-40.91-520.03-70.7-771.3-219.81-889.73-379.33-208.59-280.94-99.6-502.48-23.66-648.07 79.31-152.11 241.81-288.89 468.27-409.84 190.25-101.62 436.11-202.07 719.46-298.12 535.98-181.7 1085.33-324.7 1622.49-413.87-252.68-708.6-86.98-1396.95 82.44-2100.67 33.56-139.4 67.3-279.51 102.71-449.22 44.87-215.73 256.15-354.25 471.88-309.38 268.13 56 574.31 57.72 880.46 59.43 542.59 3.03 1085.18 6.13 1566.07 250.57 225.74-492.49 587.18-972.73 990.9-1509.03l26.08-34.65c71.63-95.18 121.51-249.99 169.37-398.57 26.3-81.66 52.25-162.2 68.23-205.26 206.52-556.5 506.75-954.13 1538.67-571.22 436.92 162.13 487.25 498.75 543.82 877.44l1.68 11.27c139.44-400.91 382.89-747.16 636.7-1108.02 90.39-128.51 182.26-259.12 256.89-374.02 119.95-184.67 366.9-237.14 551.57-117.19 210.19 136.57 506.64 207.7 796.72 277.3 475.3 114.02 937.72 225.01 1252.9 588.6 310.5-212.6 628.57-411.98 927.6-599.4 19.27-12.08-32.99 20.63 302.4-192.27 717.54-455.45 1010.13-93.72 1206.23 148.72 11.95 14.78 5.2 6.74-0.28 0.22l-0.13 0.11 11.81 14.45 0.95-0.78c138.85 169.54 203.77 346.38 177.29 582.89-19.41 173.4-94.06 363.45-235.08 604.84-108.8 186.26-251.7 380.25-407.09 585.35-3.79 38.25-13.18 76.61-28.69 113.95-113.9 274.68-125.58 646.7-82.24 1062.78 46.81 449.43 160.44 950.45 283.79 1442.21 309.93 1235.56 307.47 2088.46 12.71 2889.74-262.22 712.81-745.82 1347.09-1442.37 2162.88 144.39 315.53 107.66 709.21-27.86 1220.12-29.62 111.68-56.83 208.14-84.23 305.34-168.65 598.14-345.6 1226.11-196.33 2086.93 1.8 7.14 3.44 14.36 4.87 21.67 810.48 4144.4 1759.96 7348.08 3221.01 10282.26 1460.9 2933.87 3438.22 5609.35 6304.78 8698.17 171.17 184.44 342.95 367.43 515.24 549.19-633.85-1467.35-1208.64-3000.17-1547.51-4499.07-106.88-472.73-190.14-941.82-244.45-1404.28-1009.86-3829.38-1484.52-6009.15-1242.67-8131.16 247.19-2168.89 1234.03-4206.74 3153.37-7810.93 74.67-162.2 252.32-259.38 435.82-225.03 216.6 40.55 359.3 249.03 318.75 465.63-255.31 1360.62-58.74 2663.93 137.84 3967.19 343.89 2279.94 687.77 4559.9-1178.79 7314.96-821.67 1212.79-1015.41 2688.1-838.76 4268.1l57.34 216.93c18.68 70.99 17 142.53-1.41 208.48 47.48 315.24 108.49 634.01 181.08 955.11 481.5 2129.77 1473.55 4365.6 2413.87 6365.87 425.59 429.39 852.65 855.75 1279.95 1282.34l111.3 111.12c918.46-3365.55 1378.94-7071.68 1650.51-11646.18 22.94-386.49 53.42-780.24 91.64-1180.07 7.99-314.37 42.63-620.64 100.56-919.28 280.64-2279.88 813.19-4723.88 1659.6-7138.69 3.68-12.29 7.97-24.46 12.89-36.48 251.45-714.61 530.27-1426.58 838.36-2130.88 23.21-53.07 46.63-106.08 70.17-159.06 142.29-1352.24-535.88-2725.41-1201.26-4072.31-177.04-358.38-353.25-715.06-510.4-1061.01-238.4-524.8-93.35-1037.04 225.17-1381.88 146.27-158.34 330.55-281.03 531.59-352.41 207.34-73.63 434.14-93.14 658.74-42.28 443.38 100.4 857.14 464.11 1043.18 1214.35 257.48 1038.34 458.14 2145.75 486.24 3243.65 622.82-1099.17 1327.57-2161.82 2121.08-3166.67 540.7-1381.3 74.35-2966.17-382.52-4518.42-110.12-374.17-219.72-746.53-319.71-1132.06-144.92-558.78 85.92-1038.92 459.04-1324.01 170.81-130.51 373.34-219.58 583.98-255.41 217.28-36.98 443.95-17.44 655.79 70.96 419.69 175.13 764.94 604.43 819.34 1375.18 75.83 1074.46 83.27 2206.37-79.63 3294.68-33.02 220.61-73.05 439.41-120.85 655.61 323.89-329.07 659.55-649.15 1007.41-959.15 375.57-334.7 594.43-532.86 816.97-734.46 1015.44-1143.83 1071.92-2835.34 1127.03-4491.3 13.45-404.15 26.85-806.35 51.09-1174.79 37.93-576.18 408.45-959.76 852.93-1113.45 204.63-70.75 424-92.21 632.04-60.58 218.07 33.17 427.69 123.34 602.03 274.66 343.68 298.3 536.88 814.27 346.58 1562.51-223.6 879.16-506.77 1782.99-889.2 2636.07 501.7-401.53 1008.99-779.93 1513.11-1112.25 183.8-120.81 430.75-69.74 551.56 114.06 120.81 183.8 69.74 430.75-114.06 551.56-313.44 206.62-629.59 433.07-945.82 672.98 955.59-241.07 1960.94-357.89 2935.73-446.83 769.67-70.23 1248.56 200.9 1488.38 586.19 120.99 194.38 176.58 415.22 175 636.45-1.51 213.6-56.74 427.59-157.9 616.81-221.48 414.29-657.94 719.49-1231.84 666.36-507.41-46.97-984.38-119.15-1461.69-191.38-1547.05-234.1-3098.21-468.57-4304.2 305.07-222.29 233.73-461.87 450.95-720.53 648.26-16.73 12.8-34.26 24.09-52.39 33.89-290.92 263.5-555.23 502.69-683.56 617.05-362.36 322.92-711.01 657.3-1046.56 1001.76 229.98-94.05 464.94-178.85 703.57-255.3 1048.44-335.89 2167.39-510.6 3240.65-608.53 769.67-70.23 1248.57 200.91 1488.39 586.19 120.99 194.38 176.58 415.22 175 636.45-1.52 213.6-56.76 427.6-157.91 616.81-221.48 414.28-657.95 719.49-1231.84 666.36-428.06-39.62-797.37-85.95-1168.38-132.49-1688.59-211.8-3414.47-428.26-4713.98 470.17-23.14 15.98-47.38 29.15-72.31 39.64-1059.93 1393.7-1949.84 2896.04-2688.38 4448.33-10.95 46.67-22.37 93.21-34.31 139.61 41.79-36.59 83.92-72.87 126.39-108.84 840.57-711.84 1807.02-1301.15 2760.28-1801.82 684.8-359.68 1231.38-292.43 1600.56-28.08 186.89 133.82 323.19 317.06 406.54 522.46 79.62 196.22 110.03 414.84 88.84 629.63-46.12 467.46-333.14 916.57-884.94 1087.45-356.43 110.37-742.84 216.42-1131.12 322.98-1624.11 445.71-3283.62 901.34-4148.12 2202.05-469.34 1343.4-839.26 2696.12-1121.01 4023.16 761.53-1078.23 1729.01-2036.33 2640.12-2922.57 642.16-624.62 1266.64-731.27 1757.61-561.2 248.64 86.13 456.92 241.85 613.68 438.32 151.83 190.28 256.56 420.43 302.99 662.44 101.09 526.77-67.37 1111.48-615.75 1477.26-496.22 330.98-1026.56 631.85-1560.14 934.56-1717.5 974.36-3470.9 1969.1-3727.65 3840.47-1.47 10.97-3.4 21.78-5.72 32.41-33.52 360.77-60.54 716.39-81.29 1065.96-286.54 4826.45-783.04 8705.37-1799.96 12246.56 1219.63 1221.98 2433.17 2458.98 3601.86 3774.13 257.09 289.31 512.33 582.71 765.39 880.9 336.33-474.44 656.35-952.71 961.34-1437.11 2538.86-4032.36 4061-8508.57 5509.89-14687.97 503.08-2145.62 1284.38-4481.14 2373.74-6793.34 957.73-2032.81 2153.29-4047.04 3606.85-5897.75 136.34-173.45 387.49-203.52 560.94-67.18 173.45 136.34 203.52 387.49 67.18 560.94-1415.63 1802.42-2580.13 3764.37-3513.09 5744.61-1063.03 2256.31-1825.89 4537.26-2317.5 6633.98-1468.4 6262.62-3017.66 10809.62-5613.01 14931.71-349.82 555.61-718.6 1103.03-1108.33 1645.52 926.34 1131.91 1819.2 2336.77 2660.76 3651.31 1228.71 1919.28 2345.41 4068.09 3293.35 6558.52l17.76 46.45c38.32 95.24 99.99 248.47 149.91 436.56 170.98 644.18 198.12 1583.29-1054.78 1915.83l-21.87 4.69c-1290.7 265.34-1589.09-1097.59-1689.13-1554.59l-0.4-1.85c-366.72-1674.97-793.16-3224.23-1290.9-4659.63-497.38-1434.33-1069.38-2766.36-1727.82-4008.71-285.22-538.14-615.94-1050.32-959.26-1549.7-2430.32 3172.88-5637.78 6229.68-10106.71 9817.78z m8932.62-32659.78c-78.45 112.23-154.25 225.63-227.07 340.25 699.66-568.87 1528.1-1038.94 2349.14-1504.73 523.06-296.74 1042.95-591.68 1510.14-903.3 245.57-163.8 320.74-427.07 275.13-664.76-22.26-116.06-71.92-225.7-143.61-315.56-66.77-83.68-151.25-148.55-248.06-182.08-229.27-79.42-554.36 2.93-941.97 379.96-898.5 873.98-1852.16 1818.04-2573.7 2850.22z m9233.84-18498.02l25.28-49.61c465.52-920.8 795.7-1944.12 1049.25-2941.06 102.77-404.09 39.3-647.28-93.46-762.51-54.18-47.03-123.71-75.72-198.91-87.16-85.22-12.95-173.35-4.77-253.9 23.08-164.43 56.86-301.47 198.27-315.43 410.33-25.93 394-38.49 770.99-51.09 1149.79-25.25 758.62-50.78 1524.07-161.74 2257.14z m-4264.18 3182.99l7.86-51.45c153.3-1024.19 145.63-2098.92 73.37-3122.8-29.31-415.3-166.18-626.12-328.72-693.94-67.42-28.13-143.12-33.75-218.27-20.96-81.81 13.92-161.89 49.6-230.86 102.29-138.8 106.06-224.92 283.79-171.54 489.63 91.84 354.12 202.38 729.68 313.45 1107.06 213.96 726.96 429.79 1460.49 554.71 2190.17z m-3854.16 5811.76l-1.17-56.6c-24.79-1032.18-217.28-2090.09-464.8-3088.27-100.13-403.82-271.27-587.92-443.18-626.85-70.52-15.97-145.92-8.36-218.12 17.28-78.5 27.87-151.22 76.6-209.71 139.91-118.62 128.42-172.86 318.73-84.55 513.14 158.85 349.72 327.98 692.05 497.9 1036.01 336.11 680.36 675.18 1366.9 923.63 2065.38z m10023.6-8083.96l-21.97 6.24c640.6 30.72 1294.78 129.69 1948.27 228.58 487.52 73.78 974.68 147.5 1414.81 188.24 212.67 19.68 374.57-93.71 456.84-247.6 41.11-76.9 63.56-161.9 64.14-244.93 0.53-75.39-17.33-148.94-56.24-211.45-93.56-150.31-323.94-252.13-738.38-214.31-1025.88 93.6-2085.15 218.8-3067.47 495.23z m-4052.37 4135.55l-51.04 16.53c740.16 5.8 1498.5 100.85 2250.07 195.12 406.3 50.97 810.6 101.69 1143.38 132.49 212.66 19.68 374.57-93.71 456.84-247.6 41.11-76.9 63.56-161.91 64.15-244.93 0.53-75.39-17.33-148.94-56.24-211.45-93.56-150.31-323.95-252.13-738.39-214.31-1021.58 93.22-2082.98 258.33-3068.77 574.15z m-4764.82 6603.7l-42.9 36.57c687.33-278.4 1425.99-481.18 2158.06-682.09 367.2-100.77 732.62-201.06 1106.12-316.72 202.78-62.79 308.43-229.38 325.56-403.07 8.44-85.52-3.79-172.85-35.7-251.51-28.19-69.48-72.41-130.12-131.54-172.46-143.77-102.94-395.21-108.86-763.06 84.34-909.05 477.45-1827.03 1036.34-2616.54 1704.94z m-20218.93-11667.58c-177.8-149.18-478.28-221.28-786.59-295.25-233.37-55.99-470.06-112.79-696.09-203.73-24.08 34.49-47.89 68.33-71.59 102.02-359.37 510.92-692.2 984.25-584.08 1646.65l378.53 372.8c158.28 155.88 304.08 307.64 438.99 456.19 44.01-255.01 120.83-508.99 226.23-763.64 200.17-483.62 608.69-919.83 1094.6-1315.04z m-2775.8 1741.57c-7.3-6.67-14.35-13.62-21.16-20.84l-455.5-448.6c-289.67-285.27-339.13-616.25-383.93-916.1-19.38-129.72-26.05-241.11-31.32-243.06-368.44-136.71-458.34-41.36-510.55 99.34-28.79 77.58-43.71 123.88-58.85 170.9-67.83 210.59-138.52 430.01-291.25 632.93l-26.08 34.65c-784.98 1042.77-1376.47 1828.53-844.56 2928.23 483.35 999.28 1040.02 1756.35 1657.39 2353.77 24.75 23.4 49.55 47.07 74.42 70.99 66.5 62.52 133.7 123.24 201.57 182.27 680.44 591.87 1434.31 1018.56 2243.12 1379.25 22.21-11.05 44.62-21.78 67.23-32.18 92.66-42.6 187.75-79.12 286.08-109.56l19.26-137.15c321.87-2287.84 500.21-3555.51-1469.27-5495.16l-456.6-449.68z m3404.59 6892.66c-7.4-5.55-14.67-11.38-21.77-17.53-3.02-2.62-5.99-5.28-8.91-7.96-83.9-55.89-256.2-87.56-540.8-99.08-353.61-14.32-635.49 35.42-881.32 148.46-249.72 114.84-477.8 302.71-717.28 560.94-156.93 169.21-227.56 298.35-230.22 395.65-0.2 7.33 0.17 14.72 1.09 22.16 0.62 3.59 1.18 7.18 1.7 10.76 11.11 57.75 54.41 118.78 122.26 182.17 318.86 297.89 723.8 499.49 1110.69 692.09 267.53 133.18 527.77 262.75 763.35 418.73 39.88-483.4 156.16-895.95 269.16-1296.74 29.07-103.1 57.93-205.44 81.11-292.84 93.14-351.13 129.68-586.24 68.33-693.51-4.64-8.12-10.42-15.88-17.39-23.3z m139.23-814.52c640.25-749.56 1081.44-1324.17 1301.94-1923.55 235.75-640.85 229.74-1354.77-37.71-2420.98-115.9-462.09-224.13-936.43-283.36-1391.38-59.42 171.12-95.93 345.77-99.51 522.91-4.31 220.05-186.2 394.94-406.25 390.63-220.05-4.31-394.94-186.2-390.63-406.25 18.8-929.44 584.21-1672.54 1068.8-2309.4 165.95-218.11 321.08-421.98 429.56-607.68 78.84-134.96 120.66-223.75 130.45-279l0.14-0.12-0.1-0.12c0.61-3.45 1.09-6.79 1.45-9.98 0.81-7.26-0.85 5.29-1.8 9.55l-15.73-19.13-0.22 0.18c3.06 3.81 5.06 6.28-0.01 0.01-15.62-19.32-38.96-48.16-156.23 26.28-138.37 87.83-79.9 48.93-308.64 192.27-925.01 579.76-2051.69 1285.93-2357.27 2024.21-122.92 296.97-195.81 586.16-207.52 870.21-10.38 251.55 26.61 502.8 118.73 756.3 814.25 1398.91 655.24 2639.68 398.68 4465.06 44.52 0.18 89.76 1.19 135.78 3.05 270.88 10.97 495.21 45.97 679.45 106.93z m2318.62-8944.09c-4.44-5.29-8.03-9.57-0.13 0.11l0.13-0.11z m-605.29 519.15l-0.35-0.43-0.34 1.2 0.65-0.53 0.04-0.24z m-16.08-19.56c-12.2-14.77-4.94-5.7-0.22 0.18l0.22-0.18z m15.39 20.33l-0.15 0.12 0.15-0.12z m-11103.25 5953.9c-10.38 1.35-20.79 2.29-31.2 2.81-156.15 14.43-315.04 34.92-475.74 60.98-496.1 80.45-1012.59 214.81-1523.1 387.87-183 62.04-342.67 123.18-472.01 181.92l47.67 6.56c412 56 854.06 44.84 1291.77 33.79 797.4-20.13 1581.82-39.94 2293.12 303.92 198.48 95.78 281.72 334.34 185.94 532.82-95.78 198.48-334.34 281.72-532.82 185.94-63.19-30.55-128.44-57.24-195.49-80.6 252.86 252.33 480.11 520.13 708.8 789.61 959.59 1130.78 1947.54 2294.91 4784.19 1632.05 53.36-228.02 186.77-464.86 415.79-711.81 55.45-59.79 110.89-116.85 166.62-171.18-720.94-350.48-1401.11-766.56-2031.57-1314.95-124.09-107.93-246.08-220.9-365.92-339.34-493.32-458.53-957.79-799.93-1466.42-1040.78-565.42-267.75-1198.08-416.85-2001.33-471.42-253.97-17.25-521.74-12.35-798.3 11.81z m2210.03-2471.36c-351.43-244.47-845.44-247.31-1339.47-250.07-217.79-1.22-435.6-2.45-651.21-20.39l-25.72 107.06c-153.26 636.6-302.64 1257.5-26.7 1823.18 234.91-12.58 463.89-12.1 684.49 2.89 768.05 52.18 1404.8 184.26 1982.21 413.21-112.87-199.26-222.53-408.34-328.8-628.06-262.26-542.2-342.47-1011.66-294.8-1447.82z m-1062.49 13667.16c1075.86 2578.86 1878.29 4217.63 2911.21 5580.72 854.35 1127.43 1881.1 2083.37 3367.65 3246.94-311.89-537.37-569.92-1107.5-762.37-1713.76-984.03-3099.88-2599.41-4515.67-4214.76-5931.43-437.34-383.3-874.67-766.65-1301.73-1182.47z m494.09 12884.56c-1700.75 127.07-3381.81 761.02-5966.17 1970.37 782.73 61.3 1540.68 205.93 2298.59 350.59 2113.16 403.34 4226.33 806.69 6785.73-785.69 638.04-396.97 1324.86-648.62 2046.48-781.81-2171-597.4-3693.64-863.37-5164.63-753.46z m31881.68 21583.09c-899-2361.85-1951.02-4406.71-3106.2-6235.29 253.77 605.83 492.37 1231.81 716.79 1878.99 513 1479.41 948.61 3058.35 1319.04 4750.25l0.4 1.85c57.12 260.91 226.48 1034.08 734.21 944.67 581.81-158.49 562.91-620.42 478.43-938.72-37.39-140.87-87.51-265.4-118.65-342.8-15.87-39.49-18.15-43.52-24.02-58.95z" fill="white" fill-rule="nonzero"></path></g></svg></g></g><mask id="SvgjsMask1971"><g transform="matrix(1,0,0,1,39.55199999999999,92.60828268551236)"><svg viewBox="0 0 316.416 61.98343462897526" height="61.98343462897526" width="316.416"><g><svg viewBox="0 0 316.416 61.98343462897526" height="61.98343462897526" width="316.416"><g><svg viewBox="0 0 316.416 61.98343462897526" height="61.98343462897526" width="316.416"><g><svg viewBox="0 0 316.416 61.98343462897526" height="61.98343462897526" width="316.416"><g id="SvgjsG1970"><svg viewBox="0 0 316.416 61.98343462897526" height="61.98343462897526" width="316.416" id="SvgjsSvg1969"><g><svg viewBox="0 0 316.416 61.98343462897526" height="61.98343462897526" width="316.416"><g transform="matrix(1,0,0,1,0,0)"><svg width="316.416" viewBox="-2.5 -40.54999923706055 227.38999938964844 45.349998474121094" height="61.98343462897526" data-palette-color="#111111"></svg></g></svg></g></svg></g></svg></g></svg></g></svg></g></svg></g></mask></svg></g><defs><mask></mask></defs></svg></g></mask></svg><rect width="395.52" height="247.2" fill="none" stroke="none" visibility="hidden"></rect></g></svg></g></svg>